<svg width="50" height="50" viewBox="0 0 50 50" fill="none" xmlns="http://www.w3.org/2000/svg">
<g id="mdi:bank-circle">
<path id="Vector" d="M25.0003 4.16602C13.542 4.16602 4.16699 13.541 4.16699 24.9994C4.16699 36.4577 13.542 45.8327 25.0003 45.8327C36.4587 45.8327 45.8337 36.4577 45.8337 24.9994C45.8337 13.541 36.4587 4.16602 25.0003 4.16602ZM35.417 35.416H14.5837V31.2494H35.417V35.416ZM16.667 29.166V22.916H20.8337V29.166H16.667ZM22.917 29.166V22.916H27.0837V29.166H22.917ZM29.167 29.166V22.916H33.3337V29.166H29.167ZM35.417 20.8327H14.5837V17.7077L25.0003 12.4993L35.417 17.7077V20.8327Z" fill="#2B5262"/>
</g>
</svg>
